<svg xmlns="http://www.w3.org/2000/svg" viewBox="0 0 758 296" fill="none">
  <path fill-rule="evenodd" clip-rule="evenodd" d="M647.569 0.78043C613.4 3.48518 581.318 15.3269 533.021 43.0605C527.45 46.2597 498.781 61.8832 490.42 67.9156C464.4 83.1281 440.36 99.9754 407.462 125.999C399.965 131.93 392.626 137.658 391.153 138.729C389.68 139.8 382.798 145.128 375.858 150.569C368.919 156.01 358.504 163.98 352.714 168.281L343.516 175.006L348.516 179.006C351.553 181.229 358.164 187.09 362.516 190.006L370.516 196.006L379.016 190.006C384.498 185.597 392.279 178.726 395.782 175.811C399.285 172.896 411.776 162.857 414.201 160.847C416.626 158.838 420.318 155.949 427.144 150.29C445.631 134.963 481.502 112.007 494.26 102.533C581.313 47.1925 633.705 27.2029 682.312 46.6436C688.772 50.1275 692.158 52.8781 699.014 60.2106C706.594 68.3166 708.17 70.6632 712.305 79.9992C717.792 92.3865 720.263 102.609 721.288 117.182C723.104 142.96 716.794 171.243 703.236 198.108C693.06 218.269 684.3 229.708 671.088 242.211C628.153 272.315 597.665 274.481 543.801 261.017C510.873 246.43 487.481 230.006 448.016 193.506C444.204 190.241 440.144 186.014 439.516 186.006C438.281 185.991 399.991 214.634 399.516 216.006C399.235 216.815 404.057 219.412 409.016 222.506C410.702 223.559 412.975 225.335 416.516 227.006C433.391 238.059 468.991 255.632 482.516 262.006C485.929 263.614 490.402 264.707 492.545 265.749C509.884 274.195 533.276 282.099 555.644 287.07C564.55 289.049 601.674 289.814 609.103 288.171C612.031 287.523 616.387 286.554 618.782 286.017C633.747 282.66 656.745 272.897 670.289 264.153C708.746 239.325 740.493 194.104 753.016 146.317C764.533 102.359 755.681 60.2459 728.902 31.5909C712.119 13.6333 693.371 4.36271 667.389 1.17066C661.613 0.461953 656.637 -0.0628543 656.33 0.00607299C656.023 0.0750003 652.081 0.42386 647.569 0.78043ZM122.268 6.91848C100.692 8.62683 75.6783 17.7423 58.0176 30.3336C30.2119 50.158 12.2534 76.5887 3.92103 109.95C0.744084 122.668 -0.943192 149.281 0.550004 163.097C6.34545 216.709 38.9366 261.239 87.8925 282.436C108.528 291.37 128.098 295.45 152.658 295.937C173.489 296.35 191.779 294.037 213.531 288.238C254.082 277.427 282.658 266.098 328.68 231.976C341.818 222.235 344.259 221.314 342.05 219.506C337.696 215.941 316.951 199.525 316.016 199.506C315.451 199.495 312.641 202.192 307.128 205.872C245.084 247.275 198.239 258.453 151.476 252.979C138.261 251.432 123.184 247.836 114.645 244.194C82.5503 230.506 61.7452 207.016 52.8018 174.371C50.4952 165.952 50.3622 164.208 50.7059 146.886C51.0496 129.561 51.2517 127.827 53.8915 119.499C58.217 105.86 62.5516 96.3835 68.4271 87.7254C96.678 46.0924 144.857 34.898 199.322 57.3119C205.245 59.7489 221.144 67.3217 224.619 69.361C245.505 81.6138 248.559 83.5927 268.609 97.8683C286.178 110.375 299.632 125.4 316.016 139.031C330.379 150.982 332.229 144.373 335.6 144.44C337.306 142.561 337.353 141.225 335.571 139.031C334.554 137.779 334.892 138.21 331.041 133.458C307.893 104.899 285.92 82.0366 264.533 63.4627C232.185 35.3673 200.085 17.5822 168.343 10.1701C158.514 7.87465 132.964 6.07147 122.268 6.91848Z" fill="#ef6f2e"/>
</svg>
